<?xml version="1.0" encoding="UTF-8" standalone="no"?>
<!-- Created with Inkscape (http://www.inkscape.org/) -->

<svg
   width="171.69392mm"
   height="87.867752mm"
   viewBox="0 0 171.69392 87.867752"
   version="1.1"
   id="svg1"
   xml:space="preserve"
   inkscape:export-filename="true_steadywinsLogo.svg"
   inkscape:export-xdpi="96"
   inkscape:export-ydpi="96"
   xmlns:inkscape="http://www.inkscape.org/namespaces/inkscape"
   xmlns:sodipodi="http://sodipodi.sourceforge.net/DTD/sodipodi-0.dtd"
   xmlns="http://www.w3.org/2000/svg"
   xmlns:svg="http://www.w3.org/2000/svg"><sodipodi:namedview
     id="namedview1"
     pagecolor="#505050"
     bordercolor="#ffffff"
     borderopacity="1"
     inkscape:showpageshadow="0"
     inkscape:pageopacity="0"
     inkscape:pagecheckerboard="1"
     inkscape:deskcolor="#505050"
     inkscape:document-units="mm" /><defs
     id="defs1" /><g
     inkscape:label="Layer 1"
     inkscape:groupmode="layer"
     id="layer1"
     transform="translate(-19.700831,-107.59855)"><g
       id="g1"
       transform="matrix(0.72769325,0,0,0.72769325,-215.30727,-110.1158)"
       style="fill:#080808;fill-opacity:1"><path
         style="fill:#080808;fill-opacity:1"
         d="m 391.25054,419.68398 c -7.82332,-0.39348 -12.33059,-1.62525 -15.16786,-4.14515 -3.959,-3.51615 -8.54654,-4.50094 -27.29777,-5.85988 -13.45211,-0.97491 -21.79083,-2.26984 -24.93697,-3.87249 -1.74869,-0.89078 -1.06407,-1.40929 3.10885,-2.35454 3.20904,-0.72692 3.02575,-0.56636 1.99139,-1.74443 -2.08947,-2.37978 -0.78131,-5.25863 3.04594,-6.70313 l 2.20956,-0.83394 0.43595,-1.49962 c 0.55295,-1.9021 7.71951,-17.89797 8.99014,-20.06613 0.35864,-0.61198 1.78697,-2.15644 3.17407,-3.43212 2.817,-2.59075 2.81257,-2.54615 0.29683,-2.9886 -2.39057,-0.42043 -4.9573,-1.69617 -6.77059,-3.36517 -0.80687,-0.74266 -1.91364,-1.49608 -2.45948,-1.67424 -5.1709,-1.68784 -7.66129,-16.45779 -3.44929,-20.45702 1.58093,-1.50107 9.22017,-3.86545 11.50079,-3.55956 0.79062,0.10605 1.70913,-0.049 3.2399,-0.54676 3.09864,-1.00766 8.4446,-0.97926 13.22077,0.0702 4.35879,0.95778 5.44025,0.67659 11.45659,-2.97883 1.19239,-0.72447 3.53082,-1.8171 5.19651,-2.42807 3.34354,-1.22638 3.58731,-1.42299 5.17178,-4.17117 1.51338,-2.6249 8.50484,-9.51509 15.50955,-15.2849 3.65584,-3.01133 4.84887,-3.71405 5.87025,-3.4577 0.47603,0.11948 0.91521,-0.0675 1.74836,-0.7445 5.13681,-4.1738 11.97251,-6.13385 27.83556,-7.9815 4.21348,-0.49076 13.97384,-0.57249 16.24184,-0.136 0.78384,0.15085 2.0706,0.27428 2.85945,0.27428 0.78885,0 2.29065,0.12398 3.33732,0.27551 1.04668,0.15153 2.73649,0.39491 3.75514,0.54085 10.31239,1.4774 26.92223,8.33909 33.75446,13.9443 1.19049,0.97669 3.095,2.43064 4.23223,3.23101 5.27335,3.71128 10.68783,8.5905 13.19705,11.89244 4.49344,5.913 8.11338,12.02708 10.85419,18.33276 2.13581,4.91379 12.39308,10.25605 19.69185,10.25605 6.83573,0 7.32561,2.40002 1.07989,5.29064 -3.79161,1.75481 -5.21136,2.50907 -7.13885,3.7926 -1.74033,1.1589 -7.01145,4.97449 -7.01145,5.07537 0,0.96926 1.59636,3.24299 3.45202,4.91679 1.1945,1.07743 2.70161,2.64652 3.34914,3.48686 0.85639,1.11139 1.61054,1.74658 2.76653,2.33012 0.87407,0.44123 2.08524,1.24777 2.69149,1.79232 0.60625,0.54455 2.19812,1.85365 3.53748,2.90911 5.67632,4.47314 7.22463,8.53747 4.92419,12.92607 l -0.82892,1.58135 3.34934,0.73021 c 7.94198,1.73148 7.59811,2.58291 -1.81002,4.48157 -11.09823,2.23973 -12.99801,2.36553 -36.5125,2.41772 -17.81318,0.0395 -21.20843,0.11377 -28.31042,0.61904 -26.23383,1.86638 -40.76865,3.5292 -55.79664,6.38327 -13.99278,2.65746 -25.42396,3.44724 -39.58564,2.73497 z m 4.29947,-2.4679 c 1.58587,-0.5798 0.95519,-3.61988 -0.84467,-4.07161 -1.92278,-0.48259 -5.61195,2.98835 -4.71639,4.43739 0.1935,0.31309 4.47436,0.0315 5.56106,-0.36578 z m -7.13299,-1.39583 c 0.43387,-0.76879 0.98102,-1.55728 1.21588,-1.75219 0.86755,-0.72001 0.52568,-1.16329 -0.78338,-1.01574 -2.95457,0.33302 -5.03643,4.16573 -2.26275,4.16573 0.98116,0 1.087,-0.0808 1.83025,-1.3978 z m 10.60728,0.31078 c 0.50475,-0.17596 1.01098,-0.62577 1.26553,-1.12448 0.23334,-0.45717 0.88456,-1.33457 1.44717,-1.94978 2.57997,-2.82123 -1.42118,-5.30105 -5.34579,-3.3132 -2.17162,1.09994 -1.92449,2.03439 0.8786,3.32214 1.37019,0.62947 1.45327,0.74946 0.85989,1.24192 -0.4165,0.34566 -0.56022,2.11667 -0.17177,2.11667 0.1238,0 0.60367,-0.13198 1.06637,-0.29327 z m -14.56733,-2.99832 c 1.44217,-0.89305 1.148,-1.61733 -0.56365,-1.38775 -1.27826,0.17145 -2.19693,1.00384 -2.41996,2.1927 -0.25698,1.36981 0.0608,1.58664 1.00961,0.68885 0.45653,-0.43199 1.34483,-1.1042 1.974,-1.4938 z m 21.67415,0.6272 c 2.19929,-0.74271 2.48535,-1.12913 1.34882,-1.82203 -1.73297,-1.05654 -3.6617,-0.23275 -3.6617,1.56397 0,0.96299 0.16947,0.9819 2.31288,0.25806 z m -13.93752,-2.28255 c 2.37553,-1.40326 -0.39832,-3.69165 -3.30999,-2.73071 -0.96036,0.31695 -2.49333,1.977 -2.1489,2.32703 0.84381,0.85754 4.2626,1.11035 5.45889,0.40368 z m 18.85118,-0.82223 c 0.84364,-0.88056 0.89002,-1.26014 0.19919,-1.62986 -1.54019,-0.82428 -3.22726,0.23165 -2.52862,1.58267 0.52494,1.01511 1.3854,1.03255 2.32943,0.0472 z m -26.73956,0.0832 c 0.70921,-0.11356 0.99219,-0.29128 0.99219,-0.62313 0,-1.21498 -1.51921,-1.47361 -2.36205,-0.40212 -0.66998,0.85174 -0.70674,1.40178 -0.0853,1.27705 0.25466,-0.0511 0.9095,-0.16443 1.4552,-0.2518 z m 22.80142,-0.55066 c 1.419,-1.41901 -0.92877,-3.55298 -3.90896,-3.55298 -2.54951,0 -2.63604,1.25167 -0.21424,3.09885 1.30965,0.9989 3.35333,1.22399 4.1232,0.45413 z m -9.52503,-1.88372 c 2.24141,-0.81411 2.53844,-1.09632 1.86392,-1.77084 -1.38952,-1.38952 -5.96919,0.66188 -5.31038,2.37871 0.19534,0.50904 0.53761,0.44867 3.44646,-0.60787 z m -9.96909,0.18573 c 1.71044,-1.04288 0.37067,-2.3137 -1.47384,-1.39798 -1.11477,0.55345 -1.28408,0.91447 -0.70189,1.49666 0.56388,0.56388 1.13124,0.53815 2.17573,-0.0987 z m 5.59624,-0.65084 c 2.0852,-1.0783 1.90188,-2.67293 -0.28316,-2.46298 -1.33007,0.12781 -3.37496,1.38457 -2.94782,1.8117 0.17337,0.17337 1.87222,0.88945 2.41037,1.01599 0.0436,0.0103 0.41288,-0.15387 0.82061,-0.36471 z m 19.46791,-0.51352 c 1.22601,-1.22601 0.0113,-2.54271 -2.34577,-2.54271 -2.27527,0 -3.02893,0.716 -2.26203,2.14898 0.63471,1.18596 3.56517,1.43636 4.6078,0.39373 z m -22.57145,-1.65768 c 0.6474,-0.58588 0.61277,-1.14961 -0.0706,-1.14961 -0.61012,0 -2.09137,0.94974 -2.09137,1.34093 0,0.41811 1.6499,0.27211 2.16198,-0.19132 z m 16.61868,0.0467 c 1.39924,-1.68597 -2.14719,-4.37466 -4.86915,-3.69149 -1.14776,0.28807 -1.6117,1.8467 -0.85692,2.87892 0.64186,0.87779 5.14195,1.51639 5.72607,0.81257 z m -7.36266,-0.82476 c 0.47056,-0.29083 0.24801,-2.91339 -0.28843,-3.39885 -0.7222,-0.65359 -2.84755,-0.68028 -3.78738,-0.0476 -2.42656,1.63362 1.55774,5.00266 4.07581,3.44641 z m -5.87609,-0.75119 c 0.51431,-0.6197 0.24432,-2.11997 -0.39804,-2.21186 -0.69892,-0.1 -1.96887,0.89281 -1.96887,1.53918 0,0.92955 1.74269,1.42483 2.36691,0.67268 z m 22.5192,-1.27405 0.78655,-1.65365 -0.56251,-0.46302 c -0.7499,-0.61725 -1.96791,-0.58651 -2.62056,0.0661 -0.80913,0.80913 -0.72147,2.45616 0.16797,3.1558 1.06657,0.83896 1.37701,0.685 2.22855,-1.10528 z m 116.85754,1.25167 c 0.31564,-0.22108 1.3244,-0.55322 2.24168,-0.73808 2.00296,-0.40366 2.41516,-1.24814 1.11025,-2.27458 -1.52927,-1.20292 -3.29234,-0.72016 -4.17679,1.14369 -0.85323,1.79804 -0.43306,2.75006 0.82486,1.86897 z m 9.9306,-0.53165 c 1.30909,-0.88955 1.88666,-2.04982 1.87051,-3.75758 -0.0245,-2.58695 -1.05098,-2.84954 -3.12302,-0.7989 -0.77196,0.76399 -1.66121,1.60395 -1.97611,1.86659 -2.17613,1.81494 0.83021,4.31965 3.22862,2.68989 z m -131.03675,-0.12471 c 1.07837,-1.07836 0.13972,-2.57098 -1.7786,-2.82828 -0.92172,-0.12363 -1.11559,-0.0455 -1.7458,0.70345 -1.2746,1.51478 -0.55676,2.654 1.67232,2.654 0.97014,0 1.46403,-0.14111 1.85208,-0.52917 z m 117.0273,-1.19272 c 1.54916,-0.31127 1.77061,-0.42719 1.77061,-0.92677 0,-0.58667 -0.95268,-1.3205 -1.71251,-1.3191 -1.39157,0.003 -3.04999,1.79411 -3.04999,3.29482 v 0.67626 l 1.07366,-0.77775 c 0.59051,-0.42777 1.45371,-0.85412 1.91823,-0.94746 z m -193.095,-1.39393 c 0.29104,-0.14935 1.09471,-0.35634 1.78594,-0.45998 1.44311,-0.21639 1.59293,-0.61 0.60734,-1.5956 -1.52451,-1.5245 -4.11307,0.16079 -4.11307,2.67782 v 0.73374 l 0.59531,-0.54223 c 0.32742,-0.29822 0.83344,-0.66441 1.12448,-0.81375 z m 71.64882,-0.1114 c 1.29851,-2.68113 -2.45169,-4.20363 -4.7336,-1.92173 -1.70136,1.70136 -1.53659,2.06004 1.05438,2.29523 1.14509,0.10394 2.14576,0.25277 2.22372,0.33073 0.38954,0.38953 1.08989,0.0507 1.4555,-0.70423 z m 140.25524,-0.22399 c 2.442,-2.1441 2.63785,-5.79185 0.4362,-8.12431 -0.78075,-0.82714 -0.8383,-0.79548 -1.8287,1.00606 -0.96367,1.75292 -0.97146,1.91832 -0.27654,5.87311 0.40925,2.32907 0.4229,2.33926 1.66904,1.24514 z m -153.11833,-0.31322 c 0.88057,-0.88057 1.13545,-2.95823 0.41049,-3.34622 -0.93029,-0.49788 -3.50143,1.75762 -3.50143,3.07159 0,1.2767 1.91842,1.44715 3.09094,0.27463 z m -61.95145,0.031 c 0.0975,-0.30712 0.59561,-1.0215 1.10695,-1.5875 0.76632,-0.84822 0.84293,-1.02891 0.43591,-1.02809 -0.81357,0.002 -2.18767,0.99419 -2.36732,1.71 -0.30948,1.23303 0.45428,2.07194 0.82446,0.90559 z m 68.1803,-0.69835 c 1.88523,-2.15012 1.05668,-3.50573 -2.1427,-3.50573 -1.99959,0 -3.56753,2.5817 -2.20948,3.63802 0.67966,0.52866 3.85735,0.43207 4.35218,-0.13229 z m 12.22485,0.0472 c 1.72241,-1.72241 -0.96365,-5.17367 -2.88564,-3.7077 -2.23283,1.70307 -2.42829,3.41111 -0.42843,3.74386 0.52344,0.0871 1.07078,0.19874 1.2163,0.2481 0.68441,0.23212 1.72198,0.0915 2.09777,-0.28426 z m 4.74382,-0.44413 c 0.88258,-1.4143 0.68784,-3.87136 -0.35089,-4.42727 -1.40592,-0.75242 -3.44799,0.0433 -3.44799,1.3435 0,2.61701 2.71488,4.82084 3.79888,3.08377 z m -50.05934,-1.68725 c 3.66517,-2.95905 4.42904,-3.12183 2.08654,-0.44465 l -1.57601,1.80117 2.145,0.0775 c 2.03348,0.0735 2.18607,0.0391 2.9348,-0.66145 l 0.78979,-0.73895 -0.1732,0.7276 c -0.21488,0.90268 0.0754,0.92223 1.3639,0.0919 0.54259,-0.34965 1.28417,-0.71274 1.64797,-0.80687 l 0.66146,-0.17113 -0.7276,0.61837 c -1.34104,1.13971 -0.38188,1.37282 1.91823,0.4662 1.67173,-0.65894 1.90073,-0.65894 1.05833,0 l -0.66146,0.5174 5.19245,0.006 5.19245,0.006 0.1508,-0.75403 c 0.0829,-0.41471 0.0416,-2.17088 -0.0919,-3.9026 -0.13348,-1.73172 -0.38755,-5.26194 -0.56459,-7.84494 -0.17704,-2.58299 -0.43068,-4.69635 -0.56364,-4.69635 -0.53982,0 -4.812,-2.16456 -6.01472,-3.04744 l -1.28889,-0.94613 -1.03095,0.52594 c -2.1717,1.10793 -12.81932,9.80669 -14.2877,11.6726 -0.33368,0.42402 -1.38975,2.17441 -2.34681,3.88976 -0.95707,1.71534 -2.08304,3.58875 -2.50217,4.16312 -1.06819,1.46387 -1.0656,1.46559 1.93004,1.28309 l 2.69207,-0.16401 z m 172.937,1.60611 c 1.69165,-1.18489 0.0853,-2.19967 -2.53557,-1.60183 -2.25975,0.51545 -2.47932,0.77943 -1.20667,1.45072 1.22854,0.64802 2.93445,0.7169 3.74224,0.15111 z m -210.01306,-0.58503 c 0.35983,-0.40278 1.01142,-0.99432 1.44798,-1.31454 0.67741,-0.49687 0.71619,-0.58329 0.26459,-0.5896 -1.11821,-0.0156 -2.77813,1.4909 -2.77813,2.52139 0,0.31619 0.48012,0.0381 1.06556,-0.61725 z m 191.98586,-3.95251 c -1.06737,-1.52278 -1.83836,-2.30422 -2.9481,-2.98809 -3.81163,-2.34887 -4.85211,-3.04874 -6.08562,-4.09343 -2.45889,-2.08251 -2.64377,-2.13399 -7.35434,-2.04785 -3.23446,0.0592 -4.52535,-0.0207 -5.70977,-0.35299 l -1.53043,-0.42942 -1.67503,0.70501 c -4.8201,2.02876 -10.24732,3.98536 -12.8346,4.62709 l -2.91041,0.72188 -0.0168,0.89788 c -0.0333,1.77975 -0.13116,2.06079 -1.17999,3.38766 l -1.06449,1.34667 h 1.33738 c 0.98512,0 1.38041,-0.11216 1.50078,-0.42583 0.15019,-0.39139 0.18268,-0.39139 0.40172,0 0.37347,0.66736 1.07158,0.50742 1.8842,-0.43168 l 0.74615,-0.86228 -0.16282,0.99219 -0.16283,0.99219 0.87189,0.004 c 4.82598,0.0199 25.88954,1.17282 33.14433,1.81409 l 5.0338,0.44496 0.0802,-1.11981 c 0.0709,-0.98959 -0.0879,-1.35958 -1.3652,-3.18184 z m -93.17122,2.44085 c 2.47386,-0.21816 6.78987,-0.47605 9.59115,-0.57309 l 5.09323,-0.17644 v -0.66108 c 0,-0.3636 0.31356,-1.07219 0.6968,-1.57464 1.10357,-1.44685 0.71928,-1.5191 -9.42805,-1.77246 -3.1287,-0.0781 -7.23636,-0.31832 -9.12813,-0.53376 -5.07937,-0.57848 -4.89479,-0.60235 -4.89479,0.63301 0,0.56928 -0.17857,1.96826 -0.39683,3.10885 -0.21825,1.14059 -0.39685,2.12113 -0.39687,2.17898 -5e-5,0.11611 2.10527,-0.0334 8.86349,-0.62937 z m -93.98499,-0.53415 c -0.0729,-0.33305 -1.39729,-0.51689 -1.39729,-0.19396 0,0.40905 0.35379,0.61621 0.91515,0.53585 0.29703,-0.0425 0.51399,-0.19636 0.48214,-0.34189 z m 72.85356,-0.19359 c 2.29988,-1.5759 1.61776,-2.71682 -1.62431,-2.71682 -2.51841,0 -3.5703,0.62409 -3.5703,2.11827 0,1.32135 3.54383,1.72969 5.19461,0.59855 z m 130.00747,0.24481 c 1.52332,-0.51948 1.09693,-2.30017 -0.55078,-2.30017 -1.04851,0 -4.52229,1.87474 -4.19793,2.26557 0.39245,0.47287 3.39926,0.49478 4.74871,0.0346 z m 5.03238,-0.054 c 1.02157,-0.52828 1.38651,-1.23682 1.06823,-2.07397 -0.46047,-1.21113 -1.84891,-1.09006 -3.68425,0.32124 -1.53235,1.17833 0.75858,2.71325 2.61602,1.75273 z m -92.59248,-0.20738 c 0.66418,-0.17548 1.22973,-0.40835 1.25677,-0.51749 0.2162,-0.87256 -0.68223,-1.17484 -1.78969,-0.60215 -0.44384,0.22952 -0.80698,0.46404 -0.80698,0.52116 0,0.0571 -0.0723,0.29219 -0.16059,0.52237 -0.18866,0.49164 -0.091,0.49659 1.50049,0.0761 z m -55.69975,-1.31977 c 2.48173,-2.48173 1.70493,-4.60668 -1.26343,-3.45616 -2.15236,0.83425 -2.73319,2.33383 -1.50751,3.89203 0.77099,0.98015 1.46391,0.87116 2.77094,-0.43587 z m 52.8971,0.22153 c 1.57993,-0.69872 1.82797,-1.10344 0.82979,-1.35397 -1.07808,-0.27058 -2.54204,0.74181 -2.54204,1.75792 0,0.33911 0.0687,0.3229 1.71225,-0.40395 z m 28.99075,-0.57993 c 1.55075,-1.45055 1.71998,-2.096 0.48476,-1.84895 -0.45475,0.0909 -1.46973,0.16536 -2.2555,0.16536 -1.2994,0 -1.45264,0.063 -1.69331,0.69601 -0.14555,0.38281 -0.50789,1.03766 -0.80522,1.45521 l -0.54059,0.7592 h 1.74914 1.74914 z m -134.69005,-0.19292 c -0.0138,-1.96825 -1.53885,-3.93192 -2.6089,-3.35924 -1.47381,0.78876 -0.88786,3.74462 0.8321,4.19759 1.31154,0.34541 1.78354,0.1227 1.7768,-0.83835 z m 59.09143,0.85114 c 2.28953,-1.20511 1.00033,-3.99132 -1.57966,-3.41395 -3.37065,0.75432 -4.11209,3.18386 -1.06181,3.47936 0.89754,0.087 1.72901,0.17625 1.84772,0.19844 0.11871,0.0222 0.4759,-0.0965 0.79375,-0.26385 z m 67.91437,-0.46956 c 0.85325,-0.60622 1.04318,-1.6075 0.30492,-1.6075 -1.21769,0 -3.7445,1.45785 -3.7445,2.1604 0,0.41998 2.67562,-0.0101 3.43958,-0.5529 z m -131.61873,-0.68972 c 0.172,-0.87914 -0.40409,-1.9089 -0.89737,-1.60404 -0.41609,0.25716 -0.39417,2.46145 0.026,2.61552 0.46169,0.16929 0.69284,-0.099 0.87136,-1.01148 z m 76.53249,0.0876 c 1.51901,-1.51902 -1.32559,-4.2571 -3.65472,-3.51786 -1.22695,0.38942 -0.30066,3.37236 1.13322,3.64933 1.19469,0.23076 2.21232,0.1777 2.5215,-0.13147 z m 121.17788,-0.31594 c 1.25804,-0.65055 -0.21871,-2.77062 -1.95114,-2.80112 -0.48618,-0.009 -3.14552,1.97271 -3.22888,2.40559 -0.19946,1.03569 3.40925,1.31124 5.18002,0.39553 z m -116.40303,-2.20414 c -0.10859,-2.64258 -0.46563,-3.11157 -2.19911,-2.88866 -2.65875,0.34188 -2.3355,3.88045 0.45132,4.94057 1.7351,0.66003 1.85353,0.521 1.74779,-2.05191 z m 122.10494,1.84832 c 1.30612,-0.72006 1.73702,-1.14563 1.57842,-1.55893 -0.41309,-1.07648 -3.47091,-1.54836 -4.7219,-0.72867 -2.0315,1.33108 0.94691,3.49855 3.14348,2.2876 z m -193.35401,-0.71509 c 0.49031,-0.36413 0.43597,-0.4601 -1.19855,-2.11666 -2.10306,-2.13142 -3.25801,-2.25893 -3.84041,-0.42398 -0.59564,1.87671 3.29296,3.83735 5.03896,2.54064 z m 197.80577,-0.0564 c 0.6481,-0.58652 0.56334,-1.79394 -0.18885,-2.69048 -0.24951,-0.29738 -1.70854,0.84024 -1.70854,1.33217 0,1.17338 1.17347,2.01345 1.89739,1.35831 z m -136.69057,-0.74072 c 1.8622,-1.86219 -1.56583,-3.26406 -4.50994,-1.84431 -1.12849,0.5442 -1.61617,1.79654 -0.88108,2.26255 0.88182,0.55903 4.71081,0.26198 5.39102,-0.41824 z m -8.42524,-1.41371 c 1.4163,-0.67539 1.29178,-1.80118 -0.31573,-2.85446 -1.27207,-0.8335 -3.78786,1.00061 -3.40112,2.47954 0.29134,1.11406 1.8394,1.27021 3.71685,0.37492 z m 130.65374,0.10614 c 2.62819,-0.95398 3.62355,-2.22445 2.17978,-2.78225 -0.32742,-0.1265 -1.07555,-0.42807 -1.66251,-0.67014 l -1.0672,-0.44015 -2.50468,1.27356 c -2.75381,1.40024 -2.95756,1.73616 -1.60565,2.64722 1.1618,0.78293 2.44696,0.77514 4.66026,-0.0282 z m 6.0467,0.0857 c 0.39626,-0.3117 0.69714,-0.81406 0.69714,-1.16398 0,-0.87127 -2.21362,-1.09128 -2.95654,-0.29386 -1.33272,1.43052 0.65975,2.71613 2.2594,1.45784 z M 338.7157,390.51002 c 0.30913,-0.19559 0.3228,-0.37115 0.0718,-0.92199 -0.43857,-0.96256 -0.85052,-0.84358 -0.85052,0.24563 0,0.96338 0.13699,1.08237 0.7787,0.67636 z m 13.17807,-0.34426 c 0.81284,-0.65031 -1.62541,-4.15252 -3.8585,-5.5422 l -0.88194,-0.54884 -0.70556,0.52484 c -0.56244,0.41838 -0.72218,0.78054 -0.78744,1.78528 -0.16614,2.55749 4.34359,5.29288 6.23344,3.78092 z m 191.37302,-0.0743 c 1.17913,-0.60975 0.34176,-2.24216 -1.15015,-2.24216 -0.79491,0 -1.00041,1.92418 -0.25205,2.36005 0.59049,0.34393 0.49334,0.3521 1.4022,-0.11789 z m -128.91654,-0.82702 c 0.17607,-1.81325 -2.31394,-3.61266 -4.0154,-2.90174 -1.04892,0.43827 -1.14812,0.78962 -0.59603,2.11097 0.7328,1.75383 4.45592,2.39228 4.61143,0.79077 z m -20.74198,-0.11253 c 1.24026,-1.47397 0.0955,-4.21303 -1.76082,-4.21303 -1.14575,0 -1.25969,2.95841 -0.16742,4.347 0.6964,0.88533 1.09379,0.85772 1.92824,-0.13397 z m 146.75297,0.25124 c 0.23495,-0.439 0.22244,-0.61273 -0.0568,-0.7897 -0.57214,-0.36255 -1.55176,-0.27021 -1.71758,0.16189 -0.43672,1.13808 1.19277,1.71461 1.77441,0.62781 z m -198.18608,-0.95854 c 1.768,-2.24737 1.72111,-4.0349 -0.10584,-4.0349 -0.3228,0 -0.7378,-0.14882 -0.92222,-0.33073 -0.43038,-0.42449 -0.98669,0.27463 -1.37959,1.73376 -0.6839,2.53982 1.01719,4.39933 2.40765,2.63187 z m 65.42075,0.31902 c 2.98343,-1.15969 -0.73101,-3.95607 -4.55608,-3.42998 -2.36032,0.32462 -2.69855,1.22272 -1.15248,3.06012 l 0.71509,0.84983 2.26155,-0.14857 c 1.24385,-0.0817 2.47321,-0.23084 2.73192,-0.3314 z m 32.78078,-0.76859 c 4.18794,-0.88761 7.60431,-3.68384 9.81464,-8.03309 1.82869,-3.59832 2.21184,-3.21066 -4.10355,-4.1519 -4.82982,-0.71983 -9.33735,-1.50034 -11.31329,-1.95896 -0.65484,-0.152 -1.3418,-0.27927 -1.52658,-0.28282 -0.18477,-0.004 0.60476,1.39767 1.75452,3.11384 5.80967,8.67168 5.38494,10.36865 -2.59596,10.37196 -3.8014,0.002 -4.18851,-0.24299 -1.21339,-0.76658 2.06915,-0.36415 4.26985,-1.22171 4.46935,-1.74159 0.38904,-1.01382 -3.89658,-5.92572 -6.44369,-7.38533 l -0.87649,-0.50227 0.18821,0.63456 c 1.14759,3.86914 -0.23825,7.33609 -3.75667,9.39802 -1.67535,0.98182 -1.28328,1.10006 4.57674,1.3802 7.22167,0.34524 9.09958,0.33228 11.02616,-0.076 z m 97.4782,-0.54394 c 0.87792,-1.33987 -0.84749,-2.0294 -2.00228,-0.80018 -0.50946,0.54229 -0.55689,0.72266 -0.27831,1.05833 0.53735,0.64746 1.77932,0.50688 2.28059,-0.25815 z m -119.99634,0.1243 c 1.11988,-0.59934 0.67735,-2.02018 -1.4225,-4.5673 -2.27973,-2.76531 -5.73864,-2.88662 -5.73864,-0.20127 0,1.93342 5.55141,5.63008 7.16114,4.76857 z m 122.59534,0.1133 c 0.7177,-0.27541 0.44571,-1.95607 -0.31657,-1.95607 -0.63994,0 -1.36688,0.78647 -1.1846,1.28163 0.27383,0.74386 0.75588,0.96043 1.50117,0.67444 z m -143.01044,-0.62051 c 2.31371,-1.18036 3.05082,-2.24744 2.39673,-3.46962 -0.77427,-1.44675 -5.01777,0.61094 -5.01777,2.43314 0,1.37015 1.10808,1.80834 2.62104,1.03648 z m 130.2145,0.11446 c 2.63885,-0.93104 3.53929,-2.34248 2.06288,-3.23358 -0.65472,-0.39517 -0.81906,-0.3827 -2.51354,0.19065 -3.3961,1.14911 -6.20587,-0.0488 -7.86927,-3.35489 -0.73144,-1.45378 -0.46578,-1.58485 0.62739,-0.30955 2.36796,2.76248 5.01456,3.57216 7.59429,2.32333 1.27695,-0.61816 1.24023,-0.53765 0.8637,-1.89343 -0.2458,-0.88508 -0.38767,-1.00898 -1.3273,-1.15924 -1.46226,-0.23382 -1.49711,-0.50532 -0.11454,-0.89241 2.82418,-0.79073 2.25263,-1.98186 -0.95498,-1.99024 -1.77405,-0.005 -2.442,-0.12342 -3.32633,-0.59153 -1.5883,-0.84076 -1.5915,-1.08443 -0.0104,-0.79168 4.7114,0.87235 7.29808,-0.59953 3.92405,-2.23287 l -1.20733,-0.58445 -3.57803,0.73804 c -10.70245,2.20762 -12.73683,5.16836 -7.4413,10.82971 2.50142,2.67423 9.58938,4.25098 13.2707,2.95214 z m -171.19285,-0.3102 c 1.34327,-0.91926 1.33782,-1.10399 -0.0734,-2.48575 -2.49609,-2.44395 -4.07165,-3.05807 -5.32213,-2.07445 -2.64283,2.07885 2.57603,6.48971 5.39555,4.5602 z m 178.57616,-0.66054 c 0.71122,-0.7634 0.68421,-0.92001 -0.24113,-1.39853 -1.47039,-0.76036 -3.18814,-0.35985 -3.18814,0.74335 0,1.33747 2.3715,1.79056 3.42927,0.65518 z m 2.97407,-2.09039 c -1.36667,-1.23021 -2.00318,-0.31467 -0.69247,0.99604 0.6413,0.6413 0.71118,0.65601 1.12448,0.23666 0.41186,-0.4179 0.3836,-0.49853 -0.43201,-1.2327 z m -128.26286,0.93075 c 2.10613,-2.10613 -5.61757,-5.163 -7.99361,-3.1637 -1.69409,1.42549 -0.90928,2.35215 2.32397,2.74402 1.23692,0.14991 2.54661,0.39167 2.91041,0.53724 1.00455,0.40196 2.29468,0.34699 2.75923,-0.11756 z m 70.39806,-0.36062 c 5.01675,-1.28798 12.50539,-7.35702 10.94435,-8.86967 -0.21067,-0.20414 -25.38607,0.37637 -27.6131,0.63673 -9.71877,1.13618 -13.52923,5.73006 -6.6021,7.95948 3.45372,1.11154 19.28199,1.29754 23.27085,0.27346 z m 11.64167,-0.18628 c 3.79896,-0.91241 8.27705,-3.76665 12.76614,-8.13686 2.6652,-2.59461 2.00712,-2.82577 -4.2177,-1.4815 -4.12457,0.89072 -6.5801,2.46161 -8.68108,5.5536 -0.54398,0.80056 -1.54034,2.06837 -2.21414,2.81735 -1.90896,2.12197 -1.71775,2.2236 2.34678,1.24741 z m -97.28294,-1.24054 c 0.046,-0.38896 -0.0287,-0.7072 -0.16604,-0.7072 -0.43659,0 -0.90903,0.77111 -0.7409,1.20926 0.24015,0.6258 0.81081,0.30989 0.90694,-0.50206 z m -49.57803,0.35768 c 1.20176,-0.45691 0.77708,-3.653 -0.69337,-5.21823 -1.07236,-1.14147 -2.1077,0.38171 -2.14965,3.16253 -0.0293,1.9396 1.06579,2.7314 2.84302,2.0557 z m 191.07506,-0.11816 c 0.18725,-0.48798 -0.24393,-1.27332 -1.40422,-2.55763 -1.38161,-1.52928 -2.12704,-1.36753 -1.65056,0.35815 0.49625,1.79728 2.62183,3.32772 3.05478,2.19948 z m -143.38374,-0.46367 c 0.63559,-0.59711 0.83612,-2.1015 0.37676,-2.82647 -0.36011,-0.56833 -1.2546,-0.11582 -1.72324,0.87178 -0.96038,2.02385 -0.083,3.29758 1.34648,1.95469 z m 140.09622,0.43864 c 0.36593,-0.36593 -1.264,-4.33899 -1.94539,-4.74202 -1.43412,-0.84825 -2.03091,0.99962 -1.03278,3.19782 0.62954,1.38643 2.28011,2.24226 2.97817,1.5442 z m -133.92761,-1.54546 c 1.88807,-0.91279 2.45232,-1.94679 1.37654,-2.52253 -1.10253,-0.59006 -4.81612,1.63084 -4.81612,2.88025 0,0.99855 0.80801,0.91451 3.43958,-0.35772 z M 350.002,381.65805 c 0.99484,-0.99485 1.0919,-1.56755 0.50408,-2.9744 -0.67801,-1.62271 -3.64531,-0.46928 -3.78796,1.47243 -0.17742,2.41509 1.57105,3.21479 3.28388,1.50197 z m 10.15714,0.50614 c 0.87585,-1.05533 -4.53988,-7.27948 -6.33398,-7.27948 -1.79264,0 -2.52175,2.44718 -1.3122,4.40426 1.41653,2.292 6.53336,4.2161 7.64618,2.87522 z m 57.31822,-0.69797 c -0.0909,-0.45475 -0.16537,-0.99053 -0.16537,-1.19062 0,-0.62258 -0.775,-0.39832 -0.9435,0.27301 -0.1947,0.77575 0.2793,1.74444 0.85359,1.74444 0.33001,0 0.38501,-0.17816 0.25528,-0.82683 z m 8.46068,-1.07764 c 0.69598,-1.34588 0.42335,-2.8071 -0.76773,-4.1148 -0.93595,-1.02759 -1.27035,-0.76771 -0.79758,0.61982 0.2901,0.85137 0.37628,1.80343 0.28792,3.18035 l -0.12612,1.96523 0.51686,-0.46776 c 0.28427,-0.25726 0.68327,-0.78954 0.88665,-1.18284 z m -15.82867,0.69884 c 2.48486,-1.74046 -4.1028,-4.43751 -7.07926,-2.89832 -1.85574,0.95964 -1.20577,2.24256 1.15126,2.27237 0.89169,0.0113 2.21656,0.24018 2.94417,0.50866 1.66049,0.61272 2.24377,0.63565 2.98383,0.11729 z m 12.51268,-0.44802 c 0.98989,-1.57695 0.30276,-3.97723 -1.41816,-4.95389 -0.95341,-0.54108 -1.08902,-0.26197 -0.58869,1.21169 0.23694,0.69791 0.50084,2.01888 0.58643,2.93551 0.17938,1.92087 0.57867,2.14764 1.42042,0.80669 z m -26.74976,-0.48127 c 1.55639,-1.23026 1.75352,-1.57421 1.34244,-2.34232 -0.73247,-1.36864 -3.45065,0.0409 -3.45065,1.78941 0,1.90014 0.30323,1.97967 2.10821,0.55291 z m 19.79722,-0.38951 c 0.10732,-0.74971 -1.58638,-2.37841 -3.0576,-2.94028 l -1.18862,-0.45394 -0.36294,0.49635 c -0.19962,0.273 -0.36294,0.64306 -0.36294,0.82236 0,1.63169 4.7517,3.61519 4.9721,2.07551 z m -22.91845,-1.35304 c 0.50128,-0.45365 0.65604,-1.54113 0.25463,-1.78922 -0.30049,-0.18571 -0.98534,0.58474 -1.33331,1.49998 -0.3301,0.86822 0.26314,1.02729 1.07868,0.28924 z m 8.61756,-0.37441 c 1.93032,-0.65189 2.34464,-1.04095 1.93118,-1.8135 -0.73294,-1.36952 -5.03781,-0.49322 -5.03781,1.02549 0,1.32357 0.86844,1.54385 3.10663,0.78801 z m -37.81454,-0.58785 c 0.22812,-1.98738 -3.32046,-5.55541 -5.08473,-5.1126 -2.93189,0.73586 0.67816,6.16541 3.9416,5.92821 0.93946,-0.0683 1.06786,-0.1599 1.14313,-0.81561 z m -15.72829,-0.10148 c 2.70407,-1.18115 3.57,-2.6512 2.4577,-4.17235 l -0.35351,-0.48345 -1.74884,0.58198 c -2.95131,0.98213 -3.88147,2.22168 -2.97809,3.96863 0.51142,0.98898 0.59202,0.99221 2.62274,0.10519 z m 68.63577,0.0257 c 0.18892,-1.27035 -2.30536,-4.02544 -3.3455,-3.69531 -1.31535,0.41748 -0.83749,1.61609 1.32614,3.32634 1.42297,1.12479 1.89416,1.21089 2.01936,0.36897 z m -6.8754,-0.16448 c 0.92848,-0.92849 -0.3339,-2.15993 -2.72925,-2.66236 -2.1612,-0.45331 -3.11237,0.32464 -2.03049,1.6607 0.46921,0.57945 0.84054,0.69126 4.29672,1.29379 0.08,0.0139 0.28839,-0.11751 0.46302,-0.29213 z m -12.31914,-1.49876 c 1.49312,-0.41686 3.31008,-0.84533 4.03768,-0.95216 2.28557,-0.33556 2.8731,-1.08264 1.69202,-2.15151 -1.92674,-1.74368 -8.70348,0.66636 -8.70348,3.09525 0,0.42149 0.0583,0.76634 0.12951,0.76634 0.0712,0 1.35115,-0.34106 2.84427,-0.75792 z m -30.27877,-0.0887 c 0.95439,-0.95439 0.0535,-2.63503 -1.90015,-3.54469 -2.36484,-1.10113 -2.87168,-0.73282 -1.5282,1.11051 1.6523,2.26707 2.78864,3.07389 3.42835,2.43418 z m 23.60637,-1.27898 c 0.93038,-1.50538 -3.04044,-2.68921 -4.91041,-1.46396 -0.86113,0.56424 -0.82208,0.84394 0.20851,1.49361 0.99091,0.62465 4.31046,0.60372 4.7019,-0.0297 z m 20.63196,-0.19673 c 0,-2.90518 -6.77189,-4.8969 -7.09673,-2.08727 -0.1213,1.0492 0.30343,1.41509 1.87912,1.61876 0.75963,0.0982 1.97646,0.39878 2.70406,0.66796 1.98266,0.7335 2.51355,0.69137 2.51355,-0.19945 z m -57.07536,-0.9484 c 1.23913,-0.52447 1.82216,-1.3118 1.97491,-2.66692 0.17593,-1.56085 -0.24255,-1.72486 -2.05618,-0.80582 -3.6206,1.8347 -3.54633,5.00814 0.0813,3.47274 z m -5.99753,-1.10103 c 0.70958,-0.70958 0.7555,-1.52466 0.0931,-1.65223 -0.44402,-0.0855 -2.37228,1.56032 -2.37228,2.02482 0,0.57379 1.59327,0.31333 2.27919,-0.37259 z m 51.77934,-0.6497 c 1.82383,-0.007 2.5623,-0.33708 2.5623,-1.14664 0,-1.64424 -1.88089,-2.30878 -3.78345,-1.33674 -2.52192,1.28847 -4.51215,3.08984 -3.99032,3.61167 0.0706,0.0706 0.92581,-0.15316 1.90053,-0.49719 1.06938,-0.37745 2.38243,-0.62773 3.31094,-0.6311 z m -6.97222,-0.98757 c 0.0212,-0.71256 -6.79381,-1.74919 -9.86068,-1.49991 -1.27315,0.10349 -2.4648,0.023 -3.59748,-0.24302 -3.10226,-0.72854 -5.49479,0.49642 -3.22813,1.65278 2.98948,1.52512 6.97191,1.98485 9.28747,1.07214 1.73001,-0.6819 2.95851,-0.65803 4.7625,0.0926 l 1.45521,0.60547 0.5858,-0.67974 c 0.32219,-0.37386 0.59008,-0.82399 0.59531,-1.00028 z m 20.11785,1.49802 c 0,-1.77957 -3.50206,-3.95561 -6.36604,-3.95561 -3.15644,0 -3.82129,1.60155 -0.77771,1.8734 2.09623,0.18724 2.73748,0.38646 4.10104,1.27411 1.68316,1.09569 3.04271,1.45677 3.04271,0.8081 z m -60.72187,-2.74526 c 0.66738,-0.56222 0.73056,-0.71115 0.39687,-0.93546 -1.03594,-0.69638 -3.175,0.45632 -3.175,1.71095 0,1.17843 0.68609,0.98691 2.77813,-0.77549 z m 135.73124,1.04929 c 1.60073,-0.21469 4.16385,-0.39422 5.69582,-0.39895 3.18043,-0.01 3.64731,-0.20764 4.51792,-1.91417 1.01385,-1.98732 0.0653,-7.3907 -1.8494,-10.53506 -1.2089,-1.98528 -0.91285,-1.95255 -4.66017,-0.5152 l -2.91042,1.11634 -7.68102,0.27141 c -6.78576,0.23978 -7.97304,0.22012 -10.18646,-0.16862 -1.37799,-0.24202 -4.10804,-0.67984 -6.06677,-0.97293 -2.25353,-0.33721 -3.88545,-0.72412 -4.44392,-1.05363 l -0.88258,-0.52073 -1.56738,0.6597 c -1.09895,0.46254 -2.0552,0.6597 -3.19961,0.6597 -1.84911,0 -7.72479,0.94128 -8.51476,1.36406 -0.57996,0.31039 -0.53036,2.0852 0.19112,6.83802 0.39448,2.59865 0.37171,2.68146 -0.50946,1.85365 -0.81768,-0.76818 -1.62356,-2.87874 -2.02321,-5.29875 -0.39299,-2.37967 -0.32578,-2.33969 -4.91496,-2.92359 -2.15127,-0.27372 -5.03829,-0.79249 -6.41559,-1.15284 -1.3773,-0.36034 -2.53406,-0.62529 -2.57058,-0.58877 -0.35455,0.35455 -1.68916,6.64371 -1.62285,7.64745 0.0955,1.44538 0.0107,1.50384 -0.85104,0.5866 -1.43372,-1.52613 -0.91701,-5.10042 1.06339,-7.35597 0.47693,-0.5432 0.82154,-1.02247 0.76579,-1.06504 -0.0557,-0.0426 -0.87526,-0.35005 -1.82115,-0.68328 -2.74017,-0.96536 -5.24451,-2.18834 -7.7908,-3.8046 -2.86173,-1.81649 -2.2052,-1.90233 -5.04149,0.65912 -3.36171,3.03595 -6.98588,6.04061 -7.28608,6.04061 -1.14366,0 1.25752,-3.30953 5.80951,-8.00719 1.9641,-2.02695 1.96715,-2.22587 0.0498,-3.2514 l -1.15002,-0.61511 -1.77249,0.90331 c -4.00537,2.04125 -11.54545,3.0807 -13.38734,1.84553 l -0.78422,-0.5259 2.11667,-0.17961 c 2.86979,-0.24352 11.24479,-2.35638 11.24479,-2.83686 0,-0.11517 -0.62508,-0.64344 -1.38907,-1.17394 -1.62582,-1.12894 -4.35674,-3.69945 -6.03026,-5.67606 l -1.17963,-1.39326 -1.28865,0.39801 c -0.70875,0.21891 -2.68325,0.69247 -4.38777,1.05236 -4.20828,0.88853 -8.46546,2.95691 -8.47537,4.11781 -0.006,0.75907 1.83203,3.12295 3.7322,4.7987 1.04778,0.92404 2.86833,2.55797 4.04566,3.63097 9.65555,8.79989 17.87759,12.42646 35.08122,15.47357 6.9993,1.23972 8.63213,1.39481 22.75416,2.1612 2.70426,0.14676 11.50155,0.80938 13.62605,1.02634 2.50553,0.25586 19.16547,-0.11815 21.96041,-0.493 z M 474.97756,369.239 c -2.02537,-1.00975 -2.62973,-6.9994 -0.93949,-9.31095 0.64183,-0.87775 0.81474,-0.22822 0.97619,3.66703 0.10576,2.55178 0.2908,4.06408 0.57939,4.73547 0.48252,1.12252 0.31341,1.37186 -0.61609,0.90845 z m -14.02285,-0.54252 c -1.56232,-1.06162 -2.88743,-4.33597 -3.44237,-8.5061 -0.58239,-4.37635 0.28628,-3.90601 1.97309,1.06834 0.69085,2.03729 1.71609,4.68644 2.27833,5.88698 1.13934,2.43287 0.96915,2.7591 -0.80905,1.55078 z m 55.84061,0.24553 c 4.08646,-0.64695 6.61913,-1.35056 9.48403,-2.6348 1.40498,-0.6298 3.62607,-1.47032 4.93576,-1.86782 1.30969,-0.3975 3.9886,-1.35552 5.95313,-2.12893 1.96453,-0.77341 4.01731,-1.48833 4.56174,-1.58871 1.45164,-0.26765 1.00738,-0.5519 -1.17996,-0.75498 -2.94079,-0.27304 -3.57507,-0.50395 -10.31123,-3.75383 -6.55795,-3.1639 -6.90095,-3.27397 -8.16494,-2.62034 -1.35163,0.69895 -1.13153,0.91023 3.7173,3.56847 3.12287,1.71202 6.71348,4.01238 7.00884,4.49028 0.73567,1.19035 -8.00442,-2.31038 -12.16821,-4.87381 -1.34961,-0.83088 -1.74115,-0.95367 -2.61283,-0.81934 -2.227,0.34318 -2.25194,0.51727 -0.35548,2.48167 2.70473,2.80162 4.00083,5.94945 3.00845,7.30662 -0.43036,0.58855 -0.9638,0.33157 -0.97246,-0.46849 -0.0174,-1.6105 -1.89187,-4.76068 -4.54327,-7.63548 l -1.13899,-1.23496 -7.30876,-0.12423 c -8.61168,-0.14638 -8.17105,-0.27774 -6.98209,2.08136 1.18462,2.3505 1.53649,4.62514 1.29815,8.39174 l -0.18364,2.90223 6.58817,-0.13841 c 4.18578,-0.0879 7.60121,-0.2988 9.36629,-0.57824 z M 371.9513,368.5033 c 1.1639,-0.29307 2.77379,-1.71084 2.75377,-2.42514 -0.005,-0.17684 -0.9277,-0.76968 -2.05053,-1.31742 -3.83646,-1.87153 -4.09894,-2.49334 -0.47541,-1.12625 1.35221,0.51017 2.21659,0.67029 3.30729,0.61266 l 1.47662,-0.078 0.0856,-0.89662 c 0.0471,-0.49313 -0.11592,-1.71916 -0.3623,-2.7245 -0.55722,-2.2738 -0.37702,-2.53008 0.48886,-0.69525 1.03864,2.20091 1.564,4.26585 1.27721,5.02015 -0.44443,1.16895 1.5476,2.86809 3.36248,2.86809 1.02637,0 1.03981,-0.12779 0.0969,-0.92123 -0.88669,-0.7461 -2.03634,-2.82346 -2.27226,-4.10585 l -0.17036,-0.92604 1.39277,1.49074 c 2.57986,2.76134 5.79874,4.73304 7.70348,4.71871 l 1.09762,-0.008 -1.02043,-0.62712 c -1.51846,-0.93319 -3.82119,-2.9917 -4.69317,-4.19544 -0.91516,-1.26334 -1.00649,-1.82081 -0.17338,-1.05829 0.32742,0.29969 0.87689,0.63046 1.22103,0.73507 l 0.62573,0.19018 -0.15489,-1.15196 c -0.0852,-0.63358 -0.26822,-2.87837 -0.40675,-4.98842 -0.40699,-6.19901 -1.62685,-8.51737 -5.90262,-11.21797 -1.86236,-1.17627 -2.42631,-1.24637 -2.04928,-0.25471 0.47281,1.24359 0.0836,0.9436 -1.06696,-0.82228 -1.20614,-1.85125 -2.56387,-3.19477 -3.64329,-3.60517 -1.06713,-0.40572 -0.99303,-0.12919 0.47972,1.79027 5.72123,7.45657 1.32245,16.41402 -8.39938,17.1041 -3.3815,0.24002 -3.27176,0.16027 -2.79958,2.03474 0.49559,1.96743 1.74406,3.46667 3.73768,4.48847 l 1.4914,0.76439 -0.8599,0.30892 c -2.57681,0.92573 2.6733,1.83252 5.90233,1.01944 z m -3.45105,-2.64506 c -2.34936,-1.20971 -4.07174,-2.33322 -4.64931,-3.03272 -0.47253,-0.57229 -0.47312,-0.57253 3.06669,1.2505 1.59591,0.82191 3.40767,1.64443 4.02614,1.82782 0.61846,0.18339 1.12448,0.49318 1.12448,0.68843 0,0.66076 -1.43091,0.36639 -3.568,-0.73403 z m 11.85345,-7.26956 -0.97928,-2.09246 -0.17832,1.032 c -0.0981,0.56759 -0.12579,1.28197 -0.0616,1.5875 l 0.11675,0.5555 -0.42192,-0.52099 c -0.62993,-0.77783 -0.91811,-2.15818 -0.91429,-4.37935 0.004,-2.08131 -0.25022,-3.56983 -0.94216,-5.52582 -0.73793,-2.08599 0.026,-1.53616 1.90931,1.37425 1.91513,2.95955 3.39552,8.78249 2.53059,9.95375 -0.0439,0.0594 -0.52049,-0.83353 -1.0591,-1.98438 z m -9.49338,0.53968 c 0.71809,-0.35602 1.58083,-0.90584 1.91719,-1.22184 0.74301,-0.69802 1.01958,-0.53922 0.45779,0.26285 -0.50123,0.71561 -2.25377,1.63909 -3.07474,1.62021 -0.45337,-0.0104 -0.27726,-0.17684 0.69976,-0.66122 z m 11.77893,-2.13538 c -1.31461,-3.4577 -2.0007,-7.78081 -0.99297,-6.25682 1.23485,1.86746 1.53975,2.70006 1.7051,4.65618 0.17854,2.11213 -0.19685,2.9559 -0.71213,1.60064 z m -6.67398,-3.18433 c 0.0747,-0.99569 0.25296,-1.92941 0.39611,-2.07493 0.17091,-0.17374 0.22375,0.34837 0.15389,1.52062 -0.0585,0.98186 -0.23676,1.91558 -0.39611,2.07493 -0.20992,0.20992 -0.25231,-0.20897 -0.15389,-1.52062 z m 21.76756,13.36789 c 0,-0.1362 -0.5424,-1.20354 -1.20534,-2.37187 -0.66294,-1.16833 -1.56776,-3.03944 -2.01073,-4.15801 -1.42063,-3.58734 -2.83071,-6.13481 -3.39577,-6.13481 -0.23517,0 -0.0506,3.88773 0.2895,6.09763 0.30791,2.00087 1.70149,4.73223 3.3949,6.65391 l 1.09461,1.24216 0.91642,-0.54069 c 0.50402,-0.29738 0.91641,-0.65213 0.91641,-0.78832 z m -22.22598,0.43323 c 0.34123,-0.36323 0.56167,-0.71918 0.48985,-0.79099 -0.0718,-0.0718 -0.47159,0.22537 -0.88839,0.66041 -0.4168,0.43505 -0.63723,0.79099 -0.48985,0.79099 0.14738,0 0.54715,-0.29719 0.88839,-0.66041 z m -11.64069,-0.87089 c 0,-0.11461 -0.60198,-0.79922 -1.33774,-1.52135 -0.73576,-0.72214 -1.73558,-1.91007 -2.22182,-2.63985 l -0.88408,-1.32687 -2.34224,-0.32229 c -1.28823,-0.17726 -4.04856,-0.79545 -6.13406,-1.37377 -8.13718,-2.25647 -10.9112,-2.11111 -9.03881,0.47365 0.97671,1.34831 0.82707,1.37893 -0.68474,0.14012 -1.60732,-1.31708 -1.57578,-0.51262 0.048,1.2233 1.89509,2.026 4.86844,3.31824 4.86844,2.11586 0,-0.65755 0.13193,-0.65966 1.0351,-0.0165 1.28471,0.91479 6.44547,2.8046 8.69188,3.18286 1.65893,0.27934 8.0001,0.33076 8.0001,0.0649 z m -12.83733,-3.35544 c -1.82586,-0.39756 -3.7202,-1.1335 -3.49567,-1.35803 0.0838,-0.0838 1.08438,0.0423 2.22344,0.28024 1.13906,0.23795 3.47001,0.50487 5.17988,0.59315 1.70986,0.0883 3.10885,0.2465 3.10885,0.35162 0,0.58921 -4.5272,0.67504 -7.0165,0.13302 z m 49.32891,2.7886 c 0.437,-0.27659 0.28166,-0.56587 -1.53724,-2.8628 -1.7778,-2.24502 -2.02605,-1.61312 -0.62367,1.5875 0.68023,1.55248 1.21983,1.87094 2.16091,1.2753 z m -9.39488,-2.06905 c -0.19202,-0.83674 -0.53713,-2.79438 -0.76691,-4.3503 -1.19197,-8.07114 -3.44121,-12.82665 -6.86359,-14.51148 -2.73284,-1.34538 -3.12845,-1.00515 -1.21508,1.04501 2.40503,2.57698 3.77895,5.48008 5.17097,10.92628 1.22583,4.79602 1.17535,5.27116 -0.21009,1.97736 -1.01159,-2.40501 -1.35508,-2.61481 -1.46504,-0.8948 -0.2145,3.35516 2.49311,7.32929 4.9935,7.32929 h 0.70537 z m -24.68541,-5.09363 c 2.74791,-0.51094 6.34468,-2.75455 7.26313,-4.53063 0.56078,-1.08443 0.47619,-1.2898 -0.53129,-1.2898 -1.17765,0 -1.73837,-0.77203 -1.7242,-2.37397 l 0.0106,-1.1979 0.39473,0.7276 c 0.99918,1.84176 2.75631,0.23501 2.7581,-2.52204 0.002,-3.56171 -3.08856,-6.71094 -8.2011,-8.35597 -7.17358,-2.30819 -13.07264,-2.93601 -15.25517,-1.62355 -3.204,1.92671 -5.44332,4.28924 -5.82668,6.14727 -0.15718,0.76177 -0.61503,0.75331 -0.6125,-0.0113 0.004,-1.17845 0.67537,-2.61234 1.77276,-3.78553 1.4448,-1.54462 1.2599,-1.71187 -1.62305,-1.46817 -4.29543,0.36309 -9.55001,2.66673 -10.49396,4.60061 -0.6279,1.28638 -0.46129,1.94266 0.31487,1.24024 0.68622,-0.62101 0.63947,-0.16095 -0.18442,1.81497 -1.01387,2.43154 -0.56322,5.6105 1.46666,10.34602 l 0.541,1.26211 0.7834,-0.55783 c 3.16222,-2.2517 5.47282,-2.18664 15.35876,0.43245 4.63305,1.22744 10.65628,1.7278 13.78837,1.14544 z m 0.90923,-2.87805 c 0.37205,-0.34432 2.24656,-0.90308 2.42638,-0.72326 0.0854,0.0854 -0.27599,0.33534 -0.80298,0.55553 -1.05712,0.44169 -2.02779,0.54198 -1.6234,0.16773 z m -1.03588,-2.43241 c -1.24822,-0.98186 -0.49966,-3.1558 1.08665,-3.1558 1.05343,0 2.04644,1.91636 1.45331,2.80466 -0.61304,0.91811 -1.63888,1.05992 -2.53996,0.35114 z m 1.99327,-0.89901 c 0.22772,-0.49978 0.21876,-0.74887 -0.0381,-1.05833 -0.65505,-0.78929 -2.12317,-0.33732 -2.12317,0.65362 0,1.15153 1.67781,1.46572 2.16124,0.40471 z m -5.15503,-0.84086 c -0.0944,-0.0944 -0.0995,-0.45885 -0.0113,-0.80996 0.12587,-0.50151 0.0398,-0.66989 -0.40169,-0.78533 -0.64393,-0.16839 -0.7385,-0.56324 -0.18572,-0.77536 0.57712,-0.22146 1.4507,0.36539 1.6346,1.09808 0.22223,0.88547 -0.516,1.79241 -1.03584,1.27257 z m -5.67683,-0.67179 c 0.16354,-0.4906 0.73312,-0.57197 0.73312,-0.10473 0,0.23041 -0.18852,0.41892 -0.41892,0.41892 -0.23041,0 -0.3718,-0.14138 -0.3142,-0.31419 z m -7.90177,-1.15501 c -6.13455,-3.21295 -3.62271,-10.13562 3.85509,-10.6247 7.54583,-0.49354 8.73038,6.99452 1.63357,10.32649 -2.37899,1.11694 -3.78009,1.19306 -5.48866,0.29821 z m 4.51206,-0.93821 c 3.93887,-1.09361 6.02756,-5.38761 3.60458,-7.4104 -2.59403,-2.16559 -8.2622,-1.44483 -10.15674,1.29151 -2.60572,3.76351 1.43716,7.53905 6.55216,6.11889 z m -4.49857,-0.87909 c -3.98757,-1.73619 -1.51274,-6.34815 3.59433,-6.6982 l 2.10415,-0.14422 1.06458,1.06458 c 3.21918,3.21918 -2.13463,7.79306 -6.76306,5.77784 z m 4.80574,-0.65482 c 2.25444,-1.02391 2.96748,-3.29757 1.49571,-4.76933 -2.48494,-2.48494 -8.52196,0.28656 -7.43239,3.41209 0.6167,1.76908 3.55224,2.4402 5.93668,1.35724 z m -3.5111,-0.29455 c -1.81282,-0.73021 -1.78367,-3.11667 0.0507,-4.15323 2.17401,-1.22846 4.36562,-0.55284 4.36562,1.3458 0,2.1759 -2.32109,3.6514 -4.41634,2.80743 z m 1.53434,-3.19269 c 0.90521,-0.64457 0.78507,-1.0381 -0.31692,-1.0381 -0.81979,0 -1.20711,0.49124 -0.93873,1.19062 0.1992,0.51911 0.33572,0.50253 1.25565,-0.15252 z m -16.65788,4.27142 c 0.11359,-2.50144 0.5102,-3.17593 2.61641,-4.44963 2.08018,-1.25796 3.67631,-1.14105 1.71999,0.12599 -1.32824,0.86024 -2.94181,3.15566 -3.44526,4.90109 -0.63039,2.18559 -1.00558,1.94248 -0.89114,-0.57745 z m 33.62894,0.85306 c -0.45773,-0.16784 -0.41694,-0.87092 0.0505,-0.87092 0.48125,0 0.81071,0.50779 0.50849,0.78373 -0.12556,0.11465 -0.37712,0.15389 -0.55903,0.0872 z m -4.73979,-0.75641 c -0.0875,-0.22806 -0.0322,-0.54153 0.12282,-0.69659 0.41154,-0.41155 1.11125,-0.0503 1.11125,0.57378 0,0.65252 -0.99288,0.75133 -1.23407,0.12281 z m -19.87804,-1.32259 c -0.44008,-0.5339 -1.00394,-1.52229 -1.25302,-2.19643 -0.24907,-0.67413 -0.61984,-1.49359 -0.82393,-1.82101 -0.21217,-0.3404 -0.25516,-0.59531 -0.10038,-0.59531 0.5704,0 1.28066,1.04977 1.45793,2.15483 0.10618,0.66187 0.5236,1.58229 0.98059,2.16218 1.02852,1.30516 0.7918,1.5732 -0.26119,0.29574 z m 27.17837,-0.53479 c -0.28314,-0.34116 -0.279,-0.45411 0.0235,-0.64108 0.44321,-0.27392 0.78937,-0.0987 0.78937,0.39958 0,0.56975 -0.43358,0.69856 -0.8129,0.2415 z m -35.58288,-2.89575 c 0.66848,-0.50561 1.0992,-0.50026 0.67703,0.008 -0.18115,0.21829 -0.52315,0.39309 -0.76,0.38846 -0.36177,-0.007 -0.3485,-0.0705 0.083,-0.39687 z m 149.11582,12.58328 c 4.17632,-0.24481 7.40011,-1.01476 8.44967,-2.01806 0.57306,-0.54779 0.0686,-0.49666 -4.29144,0.43499 -6.9187,1.47838 -12.74355,1.50604 -18.58557,0.0883 -1.71614,-0.41648 -3.94183,-0.74821 -5.42395,-0.80841 -3.40583,-0.13834 -3.64736,-0.21269 -4.15606,-1.27944 -0.57727,-1.21056 -0.57867,-1.21014 2.17168,-0.65529 14.89038,3.00393 22.01446,3.0743 28.33177,0.27986 1.43093,-0.63297 1.44029,-0.28563 -0.13841,-5.13176 -0.71923,-2.2078 -1.91892,-6.03824 -2.66597,-8.5121 -1.28221,-4.246 -3.32261,-9.55286 -4.57775,-11.90625 -5.83122,-10.93354 -9.92542,-16.07837 -13.90005,-17.46703 -8.01087,-2.79883 -21.99289,-2.59482 -25.43663,0.37115 -2.50117,2.15416 -1.74814,4.8046 5.68042,19.99316 3.55215,7.2628 5.54959,12.56461 7.26586,19.28579 1.69015,6.61892 1.21221,5.97467 4.5253,6.09987 1.52215,0.0575 3.54145,0.24261 4.48734,0.41132 5.53447,0.98708 11.08795,1.23458 18.26379,0.81394 z m -16.15996,-5.84962 c -1.70877,-0.14633 -4.79227,-1.11405 -4.45983,-1.39966 0.0589,-0.0506 4.39329,0.0181 9.63204,0.15256 5.23875,0.13449 10.75202,0.20383 12.25172,0.15409 2.87659,-0.0954 3.09726,0.14007 0.85737,0.91498 -1.02756,0.35549 -14.65875,0.48824 -18.2813,0.17803 z m -8.30975,-1.8966 c -0.0571,-0.1819 -0.24792,-0.80698 -0.42396,-1.38906 -0.93537,-3.09285 -3.37822,-8.56612 -7.20347,-16.13959 -2.35202,-4.65666 -5.03388,-9.97201 -5.95968,-11.81189 -2.5197,-5.00746 -2.49601,-7.42562 0.0893,-9.1196 0.92904,-0.60874 0.97058,-0.4492 0.37842,1.4534 -1.32616,4.26096 0.0378,8.16389 5.9285,16.96455 3.83609,5.73108 6.96785,13.52206 7.47145,18.58698 0.15749,1.58395 0.006,2.36833 -0.28059,1.45521 z m 5.4838,-2.56891 c -4.0905,-0.37682 -1.89696,-0.53983 7.22646,-0.53703 9.44351,0.003 12.13805,0.13694 11.079,0.55115 -0.62677,0.24515 -15.61655,0.23358 -18.30546,-0.0141 z m 11.25614,-26.54301 c -0.81176,-1.05076 -2.38771,-2.94754 -3.50212,-4.21508 l -2.02619,-2.3046 -3.36275,-1.0929 c -4.14212,-1.3462 -4.20901,-1.41257 -1.24609,-1.2364 4.60123,0.27359 6.20592,1.66082 11.34287,9.80573 0.92103,1.46035 0.2506,0.92836 -1.20572,-0.95675 z m -33.01666,36.30728 c 2.05403,-0.25571 8.81586,-1.55546 10.70868,-2.0584 1.5275,-0.40587 1.29968,-2.00386 -1.51511,-10.62706 -2.24031,-6.86326 -3.6272,-10.47484 -5.63899,-14.68438 -0.83455,-1.74625 -2.25335,-4.91361 -3.15289,-7.03857 -3.78257,-8.93552 -7.13071,-10.49832 -18.13572,-8.46512 -6.83182,1.2622 -11.90702,4.84303 -17.40033,12.27691 -2.00022,2.70682 -6.67262,7.22676 -7.70489,7.45348 -1.03477,0.22728 -1.1485,-0.0707 1.13034,2.96204 2.83298,3.77026 3.48128,4.28444 9.29051,7.36845 3.4412,1.82686 4.2046,2.3567 6.48229,4.49903 6.50683,6.12014 16.87073,9.44221 25.93611,8.31362 z m -9.13507,-1.46602 c -1.72862,-0.41174 -5.42835,-1.67008 -5.76733,-1.96156 -0.11609,-0.0998 0.89594,0.0423 2.24896,0.31588 5.08186,1.02746 14.17548,0.88265 18.80367,-0.29944 2.18423,-0.55787 2.27572,-0.53787 1.68232,0.36777 -1.11665,1.70422 -12.13482,2.7285 -16.96762,1.57735 z m -1.19062,-2.64913 c -6.1309,-0.71864 -7.61893,-1.15638 -10.53727,-3.09979 -1.11674,-0.74368 -3.102,-2.40948 -4.41169,-3.70177 -2.1917,-2.16259 -2.67611,-2.49419 -6.08542,-4.16572 -7.69763,-3.774 -10.12801,-6.26334 -8.45166,-8.65666 0.58511,-0.83536 0.7598,-0.74315 1.11614,0.58916 0.51276,1.91717 2.75893,3.80199 8.50255,7.13474 2.44064,1.41618 3.61256,2.32812 6.11638,4.75949 5.67407,5.5099 9.59405,6.5186 21.02701,5.4107 1.99252,-0.19308 4.3443,-0.23273 6.31462,-0.10646 l 3.13963,0.20121 -0.56625,0.56729 c -0.5055,0.50643 -0.97003,0.58667 -4.33025,0.74797 -6.56838,0.3153 -10.87864,0.43179 -11.83379,0.31984 z m -5.55625,-3.51354 c -3.5787,-1.15835 -5.69704,-2.77737 -8.23648,-6.29505 -1.70413,-2.36058 -2.6153,-3.12991 -7.13082,-6.02079 -4.55888,-2.91865 -5.61812,-4.51912 -4.19135,-6.33297 1.04128,-1.32377 2.27257,-1.61448 1.43702,-0.33929 -0.81782,1.24816 0.46525,2.50906 5.42163,5.32797 4.69678,2.67127 4.81948,2.7975 6.0859,6.26102 0.95114,2.60125 3.12117,4.54278 7.61007,6.80877 2.39333,1.20815 1.87037,1.51811 -0.99597,0.59034 z m 22.19434,-4.46146 c -0.15518,-0.40018 -0.58449,-1.56104 -0.95403,-2.57969 -2.88346,-7.9484 -12.67207,-22.96681 -15.3636,-23.57198 -3.34004,-0.75099 -3.46135,-1.16656 -0.34053,-1.16656 2.53998,0 2.75887,0.14932 5.36437,3.65954 6.21021,8.3666 11.03538,17.89189 11.76689,23.22882 0.17933,1.30837 -0.0512,1.51785 -0.4731,0.42987 z M 414.0512,322.07772 c 9.36451,-10.73693 24.22657,-12.02458 29.04471,-2.51643 0.93034,1.83593 0.71518,1.96763 -0.50313,0.30796 -3.92181,-5.34257 -8.30168,-6.553 -16.39956,-4.53221 -5.60161,1.39785 -5.9221,1.56306 -9.38562,4.83805 -3.53169,3.33944 -4.73245,4.16828 -2.7564,1.90263 z m 85.57743,31.11126 c 0.63767,2e-5 2.1119,0.19716 3.27607,0.43809 5.68589,1.17669 14.25879,0.48243 17.13177,-1.3874 1.69954,-1.10612 0.99371,-4.79006 -2.02327,-10.56011 -0.6848,-1.30969 -1.16439,-2.14313 -1.06577,-1.85209 1.50708,4.44741 2.1849,7.98935 1.69564,8.86043 -0.28247,0.5029 -0.29472,0.47198 -1.18799,-2.99713 -2.08762,-8.1075 -6.6009,-15.59166 -12.83059,-21.27637 -3.3744,-3.07919 -3.74266,-2.82975 -0.72761,0.49285 3.50028,3.85732 6.01927,6.93687 6.01927,7.35875 0,0.23844 -0.0902,0.29309 -0.23096,0.13991 -0.12702,-0.13824 -1.57871,-1.79916 -3.22597,-3.69093 -9.88577,-11.3532 -14.80292,-15.13375 -23.44469,-18.02547 -4.75181,-1.59005 -4.72786,0.38944 0.10767,8.89714 4.10828,7.22819 6.37107,12.36345 10.66764,24.20957 1.99103,5.48946 2.46198,7.06139 2.75783,9.20485 l 0.17492,1.26735 0.87332,-0.53974 c 0.53124,-0.32832 1.32748,-0.53973 2.03272,-0.5397 z m 6.18648,-0.003 c -2.25317,-0.23846 -4.84517,-0.76064 -4.99706,-1.00672 -0.0613,-0.0994 3.18105,-0.18838 7.20528,-0.19786 6.05665,-0.0143 7.5425,-0.0923 8.62735,-0.45331 1.506,-0.50113 1.87328,-0.36705 0.97949,0.35757 -1.50529,1.22036 -6.92962,1.81735 -11.81506,1.30032 z m -1.17933,-2.39976 c -1.44518,-0.25446 -4.43533,-1.4632 -4.20052,-1.69802 0.0686,-0.0686 0.94991,0.0501 1.95852,0.2638 3.88014,0.82197 11.21322,0.38839 13.74425,-0.81267 1.09234,-0.51835 1.31659,-0.40252 1.07607,0.5558 -0.40599,1.61758 -7.5449,2.57737 -12.57832,1.69109 z m -7.35349,-2.24564 c -0.14746,-0.28089 -0.3548,-0.92742 -0.46075,-1.43674 -1.37217,-6.59615 -8.3253,-22.26267 -12.89631,-29.05745 -2.03173,-3.02017 -3.19218,-5.84977 -2.27344,-5.54352 1.04795,0.34932 9.6065,15.91144 13.13599,23.88534 3.63205,8.2056 4.25255,10.62547 3.1213,12.17255 l -0.35868,0.49053 z m 8.79741,0.17671 c -2.10913,-0.26682 -4.05345,-0.93872 -5.02709,-1.73721 -0.96102,-0.78814 -0.58743,-0.85073 1.63018,-0.27312 1.68698,0.4394 9.65363,0.54538 11.67083,0.15525 1.29465,-0.25038 1.52559,-0.0792 0.96766,0.71739 -0.71356,1.01875 -5.51224,1.60949 -9.24158,1.13769 z M 386.69783,341.0482 c 1.92351,-1.43602 2.91356,-1.8837 7.63632,-3.45301 5.66339,-1.88186 6.09909,-2.27632 3.21232,-2.90825 -0.84339,-0.18462 -3.14078,-0.8713 -5.10531,-1.52596 l -3.57187,-1.19028 -1.85209,0.57723 c -3.57543,1.11433 -8.06979,3.61115 -8.06979,4.48314 0,0.70363 5.18338,5.04568 6.02335,5.04568 0.19215,0 0.96933,-0.46284 1.72707,-1.02855 z m -14.54894,-3.7632 c 1.31658,-0.56918 2.40844,-0.8439 3.54016,-0.89074 1.49482,-0.0619 1.74667,-0.16288 2.91042,-1.16731 0.70069,-0.60476 2.43211,-1.66244 3.8476,-2.3504 2.58068,-1.25427 2.92115,-1.53562 2.19534,-1.81414 -0.70814,-0.27174 -7.9522,2.75 -11.64812,4.85882 -3.85006,2.19678 -4.24465,2.83331 -0.8454,1.36377 z m 28.36206,-6.3168 c 1.15048,-0.5072 5.35563,-4.70513 9.12865,-9.11298 1.23664,-1.44471 2.7303,-3.17111 3.31925,-3.83646 3.63874,-4.11076 3.53137,-4.63407 -1.25897,-6.13592 -7.23904,-2.26956 -8.76071,-1.67091 -17.5083,6.88811 -8.02608,7.85305 -8.99077,9.6706 -5.48562,10.33533 0.7782,0.14759 2.33518,0.68385 3.45996,1.1917 3.29288,1.48678 5.99973,1.70418 8.34503,0.67022 z m -3.43958,-1.8851 c -0.43656,-0.13649 -1.62452,-0.42798 -2.63991,-0.64774 -3.652,-0.79043 -4.03564,-1.70444 -0.7154,-1.70444 4.58151,0 7.91209,-1.64952 13.0126,-6.4447 2.85704,-2.686 3.51562,-3.23141 3.22949,-2.67447 -0.76807,1.49496 -8.50612,8.39704 -10.8773,9.70218 -1.58844,0.8743 -0.57385,1.41386 1.11251,0.59163 l 0.84676,-0.41286 -0.9883,0.94203 c -1.01921,0.97148 -1.56633,1.0905 -2.98045,0.64837 z m -8.99245,-1.81755 c -0.21105,-0.34148 0.18375,-1.04535 1.03065,-1.83752 0.75907,-0.71 0.81391,-0.65611 0.41092,0.40382 -0.19978,0.52546 -0.19052,0.77498 0.0339,0.91368 0.1698,0.10495 0.22692,0.32318 0.12693,0.48498 -0.2245,0.36323 -1.3839,0.38859 -1.6024,0.035 z m 10.07557,-2.87577 c -0.075,-0.1213 0.20241,-0.47096 0.61639,-0.77703 0.41397,-0.30606 2.69995,-2.31674 5.07995,-4.46816 3.98738,-3.60443 6.77133,-5.80628 7.02303,-5.55458 0.16896,0.16896 -7.71307,7.83554 -9.21934,8.96732 -1.71512,1.28872 -3.31756,2.12768 -3.50003,1.83245 z M 418.6523,314.2862 c 0.66813,-0.35757 0.64923,-0.70516 -0.0504,-0.92722 -0.56748,-0.18011 -1.01304,0.19962 -1.02125,0.87038 -0.005,0.40235 0.38721,0.42315 1.07167,0.0568 z m 22.99736,-4.61665 c 1.8124,-1.92921 9.65937,-4.09103 14.88681,-4.10128 2.24822,-0.004 2.50382,-0.20574 1.17185,-0.92305 -0.6807,-0.36658 -0.9994,-0.40859 -1.41445,-0.18646 -0.29467,0.1577 -1.59591,0.41795 -2.89164,0.57833 -7.71331,0.95474 -11.5547,2.34338 -13.35416,4.82746 -0.96163,1.32749 -0.96937,1.76844 -0.0481,2.73867 l 0.72761,0.76624 0.13384,-1.50169 c 0.0992,-1.11285 0.30329,-1.68206 0.7882,-2.19822 z m 35.59678,2.00006 c -0.0958,-0.30201 -0.34759,-0.54911 -0.55942,-0.54911 -0.323,0 -0.31434,0.10806 0.0537,0.66972 0.49866,0.76105 0.76539,0.69744 0.50575,-0.12061 z m -50.14486,-1.06314 c 5.39978,-1.1976 8.97476,-2.23634 12.53605,-3.64244 2.16003,-0.85284 3.57641,-1.31689 7.1754,-2.35089 0.72761,-0.20904 2.63261,-0.49835 4.23334,-0.64292 5.55618,-0.50178 5.73396,-0.64878 2.18281,-1.80503 -5.59849,-1.82284 -8.85966,-1.85424 -20.46964,-0.19705 -12.32495,1.75925 -19.66809,3.56469 -21.80226,5.36048 -1.12879,0.94981 -1.06451,1.01854 1.79065,1.9143 1.77366,0.55646 2.9517,1.10932 3.77031,1.76943 l 1.19063,0.96009 2.24896,-0.14019 c 1.23692,-0.0771 4.45161,-0.62871 7.14375,-1.22578 z m -9.24122,-0.44769 c -0.3016,-0.38343 -0.54837,-0.79312 -0.54837,-0.91043 0,-0.35472 0.48105,-0.53642 0.65879,-0.24883 0.28112,0.45486 1.29824,0.3054 4.28057,-0.62903 2.84138,-0.89025 12.54262,-3.34517 13.1389,-3.32481 0.76476,0.0261 -1.3892,0.8452 -5.90742,2.24643 -2.69214,0.83491 -5.84157,1.97832 -6.99875,2.54091 -2.57731,1.25304 -3.82516,1.34096 -4.62372,0.32576 z m 7.52969,-0.061 c 0.31574,-0.29433 14.42465,-4.27696 15.10871,-4.26485 1.19145,0.0211 -5.419,2.18782 -10.35448,3.39392 -4.01499,0.98116 -5.0822,1.17666 -4.75423,0.87093 z m 47.21986,-3.18658 c -1.2784,-0.72314 -11.4158,-2.66938 -11.32027,-2.17333 0.0483,0.25058 0.49951,0.49512 1.1361,0.61568 9.46992,1.79338 11.02001,2.03046 10.18417,1.55765 z m 2.64583,-0.78161 c 0,-0.26935 -2.4835,-1.39174 -4.36563,-1.97297 -2.99277,-0.92423 -9.34921,-2.54355 -10.58333,-2.69614 -0.7276,-0.09 -1.65034,-0.22489 -2.05052,-0.29985 -1.26402,-0.23678 -0.78931,0.26916 1.19287,1.27132 1.1215,0.56701 2.62912,1.08049 3.63578,1.2383 2.41303,0.37828 9.24116,1.83983 10.62205,2.27362 1.44371,0.45353 1.54878,0.46612 1.54878,0.18572 z"
         id="path1" /></g></g></svg>
